<?xml version="1.0" encoding="UTF-8"?>
<svg id="Layer_2" data-name="Layer 2" xmlns="http://www.w3.org/2000/svg" viewBox="0 0 134.36 44.55">
  <g id="Layer_1-2" data-name="Layer 1">
    <g>
      <polygon points="109.53 25.82 124.83 25.82 124.83 44.55 134.36 44.51 134.36 .01 125 0 125 17.16 109.53 17.16 109.54 0 100.17 0 100.17 44.54 109.54 44.55 109.53 25.82"/>
      <polygon points="53.11 0 43.74 0 43.74 44.55 53.12 44.51 53.11 0"/>
      <polygon points="71.69 44.55 81.07 44.52 81.06 7.97 92.52 7.96 92.51 0 60.42 0 60.42 7.96 71.7 7.97 71.69 44.55"/>
      <path d="M9.38,31.11l5.37-6.65,10.55,20.01c3.52-.04,6.88.2,10.41-.07l-14.54-27.51L33.83.08,23.13.02l-13.65,17.91L9.35,0H0s0,44.53,0,44.53h9.36s.02-13.43.02-13.43Z"/>
    </g>
  </g>
</svg>