<svg xmlns="http://www.w3.org/2000/svg" viewBox="0 0 280 80">
  <!-- Seagate chain-link S mark (simplified) -->
  <path d="M38 20a16 16 0 0 0-12 5.5 14 14 0 0 0 2 21l8 7.5a6 6 0 0 1 .4 8.5 6.5 6.5 0 0 1-9.5.4 14 14 0 0 1-3-5l-6 2a20 20 0 0 0 5 8 18 18 0 0 0 25.5-1 14 14 0 0 0-2-21l-8-7.5a6 6 0 0 1-.5-8.5 6.5 6.5 0 0 1 9-.5 12 12 0 0 1 3 4.5l6-2a18 18 0 0 0-5-7.5A17 17 0 0 0 38 20z" fill="#111827"/>
  <text x="52%" y="52%" dominant-baseline="middle" text-anchor="middle"
    font-family="'Helvetica Neue', Helvetica, Arial, sans-serif"
    font-weight="600" font-size="28" letter-spacing="1" fill="#111827">Seagate</text>
</svg>
