<svg xmlns="http://www.w3.org/2000/svg" viewBox="0 0 192.756 192.756" fill-rule="evenodd" clip-rule="evenodd"><path fill="none" d="M0 0h192.756v192.756H0V0z"/><path d="M53.417 78.472a10.107 10.107 0 0 0-7.193-2.98H28.866c-5.609 0-10.172 4.563-10.172 10.172 0 1.976.713 3.818 1.368 5.2.385.811.988 1.738 1.619 2.439-.979-.319-2.096-.452-3.002-.452-5.61 0-10.173 4.564-10.173 10.173 0 2.717 1.059 5.271 2.979 7.191a10.099 10.099 0 0 0 7.194 2.98h17.357c2.718 0 5.272-1.057 7.193-2.98a10.094 10.094 0 0 0 2.979-7.189c0-1.975-.713-3.812-1.368-5.193a10.815 10.815 0 0 0-1.618-2.441c.977.32 2.095.45 3.002.45 2.717 0 5.271-1.062 7.193-2.983a10.11 10.11 0 0 0 2.98-7.194c0-2.718-1.059-5.272-2.98-7.193zm-34.74 31.737a7.14 7.14 0 0 1-5.081-2.105c-1.357-1.357-2.104-3.16-2.104-5.08s.747-3.725 2.104-5.082a7.143 7.143 0 0 1 5.081-2.104 7.14 7.14 0 0 1 5.08 2.104 7.173 7.173 0 0 1 1.333 1.84c.474 1.109.772 2.191.772 3.242.001 3.96-3.223 7.185-7.185 7.185zm8.679 0h-1.48a10.11 10.11 0 0 0 2.973-7.186c0-1.623-.38-3.186-1.093-4.592-.729-1.66-1.729-3.279-2.714-4.87-1.729-2.79-3.361-5.427-3.361-7.898 0-3.96 3.223-7.185 7.185-7.185h1.859c-2.207 1.792-3.353 4.215-3.353 7.185 0 3.331 1.945 6.48 3.827 9.527 1.718 2.784 3.342 5.413 3.342 7.833a7.14 7.14 0 0 1-2.104 5.08 7.137 7.137 0 0 1-5.081 2.106zm13.76-2.105a7.138 7.138 0 0 1-5.081 2.105h-1.858c2.357-1.875 3.353-4.531 3.353-7.186 0-3.268-1.926-6.387-3.789-9.403-1.661-2.69-3.38-5.474-3.38-7.957 0-3.96 3.223-7.185 7.187-7.185h1.484a10.14 10.14 0 0 0-2.978 7.185c0 1.614.375 3.169 1.08 4.569.73 1.672 1.737 3.302 2.729 4.902 1.729 2.789 3.36 5.421 3.36 7.888a7.15 7.15 0 0 1-2.107 5.082zm5.109-15.254a7.145 7.145 0 0 1-5.082-2.104 7.191 7.191 0 0 1-1.341-1.854c-.468-1.104-.764-2.181-.764-3.228 0-1.918.748-3.723 2.104-5.08a7.14 7.14 0 0 1 5.082-2.105 7.14 7.14 0 0 1 5.08 2.105 7.135 7.135 0 0 1 2.105 5.08c.001 3.963-3.223 7.186-7.184 7.186z" fill="currentColor"/><path d="M75.518 83.794c-.697.004-1.369.05-1.784.116-3.319.349-6.516 1.754-7.63 4.892-.883 2.488-.063 5.244 1.806 7.07l3.674 3.538a18.91 18.91 0 0 1 1.579 1.709 2.6 2.6 0 0 1 .177 2.949 3.484 3.484 0 0 1-.814.881 5.885 5.885 0 0 1-3.522 1.244c-.411.008-.821.01-1.23.014a27.377 27.377 0 0 1-6.345-1.352l-.866 4.488 2.58.746c2.093.609 4.28.887 6.458.816 3.783-.102 7.614-2.213 9.172-5.768 1.02-2.303.959-5.051-.599-7.123a21.685 21.685 0 0 0-2.254-2.511l-3.247-3.096c-.658-.638-1.442-1.495-1.185-2.495.119-.451.532-.871.774-1.062.232-.183.412-.261.776-.377 1.986-.632 4.825-.413 7.235-.139l.823-4.072s-1.049-.214-1.813-.28c-.763-.066-2.603-.195-3.765-.188z" fill="currentColor"/><path d="M92.976 88.186c-2.118-.369-4.354-.337-6.405.352a5 5 0 0 0-2.842 2.483 17.486 17.486 0 0 0-.976 2.406 45.318 45.318 0 0 0-1.929 8.502c-.237 1.881-.426 3.852.22 5.676a3.73 3.73 0 0 0 2.86 2.416 12.87 12.87 0 0 0 2.046.182c2.532.025 5.064.021 7.597-.016l.796-4.021h-7.477a1.322 1.322 0 0 1-1.319-1.26 8.304 8.304 0 0 1 .235-2.252 1.773 1.773 0 0 1 1.679-1.332l5.926-.008c.164 0 .317-.053.479-.07a2.497 2.497 0 0 0 2.032-1.609c.428-1.17.632-2.381.748-3.619-.006-.006-.005-.012-.004-.018.192-1.382.211-2.788.06-4.175-.124-1.105-.723-2.265-1.69-2.856a5.788 5.788 0 0 0-2.036-.781z" fill="currentColor"/><text x="58%" y="55%" dominant-baseline="middle" text-anchor="middle" font-family="'Helvetica Neue', Helvetica, Arial, sans-serif" font-weight="600" font-size="26" fill="currentColor">Seagate</text></svg>
